<?xml version="1.0" standalone="no"?>
<!DOCTYPE svg PUBLIC "-//W3C//DTD SVG 20010904//EN"
 "http://www.w3.org/TR/2001/REC-SVG-20010904/DTD/svg10.dtd">
<svg version="1.0" xmlns="http://www.w3.org/2000/svg"
 width="900.000000pt" height="595.000000pt" viewBox="0 0 900.000000 595.000000"
 preserveAspectRatio="xMidYMid meet">
<metadata>
Created by potrace 1.16, written by Peter Selinger 2001-2019
</metadata>
<g transform="translate(0.000000,595.000000) scale(0.100000,-0.100000)"
fill="#000000" stroke="none">
<path d="M4108 5539 c-250 -39 -512 -110 -703 -189 -547 -228 -971 -625 -1230
-1155 -111 -226 -188 -470 -232 -730 -26 -158 -26 -622 0 -778 45 -268 110
-474 222 -702 128 -261 280 -471 486 -670 588 -569 1421 -813 2254 -660 465
86 870 295 1209 625 296 288 510 636 644 1050 125 384 160 726 107 1034 -29
168 -90 416 -136 549 -312 909 -981 1447 -2017 1621 -192 32 -421 34 -604 5z
m512 -179 c554 -50 1034 -272 1416 -654 206 -207 348 -414 466 -677 136 -306
201 -612 201 -949 0 -312 -49 -581 -156 -857 -238 -615 -753 -1099 -1396
-1314 -567 -189 -1151 -166 -1699 67 -1008 429 -1552 1552 -1281 2644 61 247
190 553 309 735 241 366 704 740 1084 874 308 109 724 160 1056 131z"/>
<path d="M3246 4715 c-61 -21 -88 -47 -121 -110 l-30 -59 -3 -1474 c-3 -1642
-7 -1544 65 -1615 69 -70 10 -67 1252 -67 693 0 1129 4 1150 10 79 22 133 82
151 165 7 32 9 193 8 444 l-3 395 -65 -118 c-36 -65 -90 -159 -120 -209 l-55
-92 3 -177 4 -178 -1076 0 -1076 0 0 1430 0 1430 1075 0 1075 0 2 -649 3 -649
118 207 117 206 -2 475 -3 475 -31 55 c-22 38 -46 64 -79 85 l-48 30 -1136 2
c-957 2 -1142 0 -1175 -12z"/>
<path d="M3540 4025 l0 -85 659 0 660 0 3 85 3 85 -662 0 -663 0 0 -85z"/>
<path d="M6073 3858 c-18 -23 -85 -149 -82 -152 10 -8 218 -126 227 -128 12
-3 103 143 96 154 -2 3 -41 27 -87 54 -45 26 -96 55 -113 66 -25 14 -34 15
-41 6z"/>
<path d="M3540 3625 l0 -85 865 0 865 0 0 85 0 85 -865 0 -865 0 0 -85z"/>
<path d="M5719 3272 c-558 -951 -642 -1098 -650 -1127 -5 -17 -5 -85 -1 -153
l7 -122 121 73 c108 64 125 78 150 122 15 28 117 205 227 395 413 714 588
1022 585 1025 -4 3 -184 107 -214 123 -20 10 -33 -9 -225 -336z"/>
<path d="M3535 3245 l0 -85 665 0 665 0 0 85 0 85 -665 0 -665 0 0 -85z"/>
<path d="M3540 2835 l0 -85 865 0 865 0 0 85 0 85 -865 0 -865 0 0 -85z"/>
<path d="M3538 2465 l-3 -85 662 0 662 0 3 85 3 85 -662 0 -662 0 -3 -85z"/>
<path d="M3636 2140 c-91 -29 -132 -141 -85 -236 28 -58 72 -84 141 -84 64 0
108 25 146 80 47 68 16 187 -59 225 -37 20 -106 27 -143 15z"/>
<path d="M4134 2121 c-69 -42 -96 -110 -74 -184 26 -87 117 -139 202 -116 80
21 139 114 123 192 -9 41 -48 93 -85 112 -41 21 -128 19 -166 -4z"/>
</g>
</svg>
